<svg xmlns="http://www.w3.org/2000/svg" width="1195" height="719" viewBox="0 0 1195 719">
  <g id="Group_136" data-name="Group 136" transform="translate(-20 -20)">
    <rect id="Rectangle_33" data-name="Rectangle 33" width="1195" height="719" transform="translate(20 20)" fill="rgba(81,134,203,0.1)"/>
    <g id="Computer_Connection_Wifi" data-name="Computer Connection Wifi" transform="translate(488.968 275.592)">
      <g id="Group_135" data-name="Group 135" transform="translate(0 0)">
        <path id="Ellipse_39" data-name="Ellipse 39" d="M11.633-21.429A33.062,33.062,0,1,1-21.429,11.633,33.1,33.1,0,0,1,11.633-21.429Zm0,47.857a14.8,14.8,0,1,0-14.8-14.8A14.812,14.812,0,0,0,11.633,26.428Z" transform="translate(116.229 165.244)" fill="#5186cb"/>
        <path id="Path_18" data-name="Path 18" d="M181.846,313.756A9.133,9.133,0,0,1,175.3,298.25a73.294,73.294,0,0,1,52.207-22.028h0A73.29,73.29,0,0,1,279.72,298.25,9.133,9.133,0,1,1,266.635,311a54.616,54.616,0,0,0-78.246,0A9.106,9.106,0,0,1,181.846,313.756Z" transform="translate(-99.102 -181.447)" fill="#5186cb"/>
        <path id="Path_19" data-name="Path 19" d="M258.539,219.757a9.1,9.1,0,0,1-6.477-2.694,110.51,110.51,0,0,0-156.738,0,9.133,9.133,0,1,1-12.953-12.878,128.776,128.776,0,0,1,182.645,0,9.133,9.133,0,0,1-6.477,15.572Z" transform="translate(-45.739 -118.319)" fill="#5186cb"/>
        <path id="Path_20" data-name="Path 20" d="M246.592,121.319a9.1,9.1,0,0,1-6.46-2.677,158.732,158.732,0,0,0-224.539,0A9.133,9.133,0,0,1,2.673,105.729,175.845,175.845,0,0,1,127.862,53.855h0a175.835,175.835,0,0,1,125.189,51.874,9.133,9.133,0,0,1-6.46,15.589Z" transform="translate(0 -53.855)" fill="#5186cb"/>
      </g>
    </g>
  </g>
</svg>
